<svg width="512" height="512" viewBox="0 0 512 512" fill="none" xmlns="http://www.w3.org/2000/svg">
  <defs>
    <linearGradient id="bg" x1="0" y1="0" x2="512" y2="512" gradientUnits="userSpaceOnUse">
      <stop stop-color="#1E8455"/>
      <stop offset="1" stop-color="#0A3E28"/>
    </linearGradient>
    <linearGradient id="gold" x1="180" y1="150" x2="340" y2="380" gradientUnits="userSpaceOnUse">
      <stop stop-color="#F4DC95"/>
      <stop offset="1" stop-color="#C9A24B"/>
    </linearGradient>
  </defs>

  <!-- Фон-плашка -->
  <rect width="512" height="512" rx="112" fill="url(#bg)"/>
  <circle cx="256" cy="256" r="170" fill="none" stroke="url(#gold)" stroke-width="5" opacity="0.55"/>

  <!-- Конфедератка -->
  <g>
    <polygon points="176,212 256,180 336,212 256,244" fill="url(#gold)"/>
    <path d="M220,232 L292,232 L284,268 C272,278 240,278 228,268 Z" fill="url(#gold)"/>
    <circle cx="256" cy="196" r="9" fill="#FBEFC4"/>
    <path d="M256 196 L324 210 L324 268" stroke="#FBEFC4" stroke-width="6" fill="none"/>
    <path d="M324 268 l-9 26 18 0 z" fill="#FBEFC4"/>
  </g>

  <!-- Весы -->
  <g stroke="url(#gold)" stroke-width="8" fill="none" stroke-linecap="round">
    <line x1="256" y1="288" x2="256" y2="372"/>
    <line x1="198" y1="304" x2="314" y2="304"/>
    <line x1="222" y1="376" x2="290" y2="376"/>
  </g>
  <circle cx="256" cy="288" r="9" fill="url(#gold)"/>
  <g stroke="url(#gold)" stroke-width="4" fill="none">
    <line x1="198" y1="304" x2="176" y2="338"/><line x1="198" y1="304" x2="220" y2="338"/>
    <line x1="314" y1="304" x2="292" y2="338"/><line x1="314" y1="304" x2="336" y2="338"/>
  </g>
  <path d="M172 338 Q198 368 224 338 Z" fill="url(#gold)"/>
  <path d="M288 338 Q314 368 340 338 Z" fill="url(#gold)"/>
</svg>
